<?xml version="1.0" encoding="utf-8"?>
<!-- Generator: Adobe Illustrator 19.1.0, SVG Export Plug-In . SVG Version: 6.00 Build 0)  -->
<svg version="1.1" id="Ebene_1" xmlns="http://www.w3.org/2000/svg" xmlns:xlink="http://www.w3.org/1999/xlink" x="0px" y="0px"
	 viewBox="496 -272 503 300" style="enable-background:new 496 -272 503 300;" xml:space="preserve">
<style type="text/css">
	.st0{display:none;}
	.st1{display:inline;fill:#7D7D7D;}
	.st2{fill:#FA7D19;}
	.st3{fill:#FFFFFF;}
</style>
<g id="Ebene_13" class="st0">
	<rect x="496" y="-272" class="st1" width="1024" height="576"/>
</g>
<g id="ZDFsport_x5F_de">
	<g>
		<path class="st2" d="M950.2-164.8H999V-188h-58.7c-31.6,0-44.6,17.7-44.6,45.4l0,2.7c-5.3-32.6-24.7-48.1-60.2-48.1H776
			c-24-48-73.5-81-130.9-81C564.5-269,499-203.5,499-122.8c0,80.7,65.5,146.1,146.1,146.1c57,0,106.3-32.5,130.4-80h60.7
			c14.5,0,27.6-0.9,40.9-11.5c9.6-7.6,15.6-18.4,18.4-32.5v43.8h27.8l0-51.5h65.7v-22.9h-65.8l0.4-9.3
			C923.7-155.7,928.3-164.8,950.2-164.8z M834.9-79.9h-30.7v-84.9h30.7c24.1,0,32.8,10.3,32.8,42.5
			C867.7-90.2,859.1-79.9,834.9-79.9z"/>
		<g>
			<path class="st3" d="M709.8-133.7H728c14.4,0,22.9-2.9,22.9-15.1c0-12.6-8.5-16.1-23.3-16.1h-61.5v-23.1h71.6
				c36.3,0,41.5,25.4,41.5,39.6c0,15.1-6.2,39-41.5,39h-17.6c-22,0-26.7,7.9-26.7,23v7h82.2V-57H665.3v-32.5
				C665.3-117.3,678.3-133.7,709.8-133.7z"/>
		</g>
	</g>
</g>
</svg>
